<svg xmlns="http://www.w3.org/2000/svg" viewBox="0 0 55.14 55.14"><defs><style>.cls-1{fill:#3b5998;}</style></defs><title>facebook</title><g id="Capa_2" data-name="Capa 2"><g id="Layer_1" data-name="Layer 1"><path class="cls-1" d="M27.57,55.14A27.57,27.57,0,1,1,55.14,27.57,27.6,27.6,0,0,1,27.57,55.14Zm0-49.37a21.8,21.8,0,1,0,21.8,21.8A21.82,21.82,0,0,0,27.57,5.77Z"/><path class="cls-1" d="M29.54,42.95H23.33v-15h-3.1V22.76h3.1v-3.1c0-4.22,1.75-6.73,6.73-6.73H34.2V18.1H31.62c-1.94,0-2.07.72-2.07,2.07v2.59h4.69l-.55,5.17H29.54Z"/></g></g></svg>