<svg xmlns="http://www.w3.org/2000/svg" xmlns:xlink="http://www.w3.org/1999/xlink" viewBox="0 0 55.14 55.14"><defs><style>.cls-1{fill:url(#linear-gradient);}.cls-2{fill:url(#linear-gradient-2);}.cls-3{fill:url(#linear-gradient-3);}.cls-4{fill:url(#linear-gradient-4);}</style><linearGradient id="linear-gradient" y1="27.57" x2="55.14" y2="27.57" gradientUnits="userSpaceOnUse"><stop offset="0" stop-color="#4845a2"/><stop offset="0.1" stop-color="#4d45a2"/><stop offset="0.21" stop-color="#5a45a2"/><stop offset="0.32" stop-color="#7144a1"/><stop offset="0.36" stop-color="#7a44a1"/><stop offset="0.42" stop-color="#8143a1"/><stop offset="0.51" stop-color="#9342a0"/><stop offset="0.61" stop-color="#b23f9e"/><stop offset="0.66" stop-color="#c53d9d"/><stop offset="0.98" stop-color="#f9a326"/></linearGradient><linearGradient id="linear-gradient-2" x1="15.05" y1="27.24" x2="40.32" y2="27.24" xlink:href="#linear-gradient"/><linearGradient id="linear-gradient-3" x1="21.08" y1="27.24" x2="34.29" y2="27.24" xlink:href="#linear-gradient"/><linearGradient id="linear-gradient-4" x1="33.23" y1="20.3" x2="36.32" y2="20.3" xlink:href="#linear-gradient"/></defs><title>instagram</title><g id="Capa_2" data-name="Capa 2"><g id="Layer_1" data-name="Layer 1"><path class="cls-1" d="M27.57,55.14A27.57,27.57,0,1,1,55.14,27.57,27.6,27.6,0,0,1,27.57,55.14Zm0-49.37a21.8,21.8,0,1,0,21.8,21.8A21.82,21.82,0,0,0,27.57,5.77Z"/><path class="cls-2" d="M34.9,40H20.47A5.37,5.37,0,0,1,15,34.67V19.81a5.37,5.37,0,0,1,5.42-5.3H34.9a5.36,5.36,0,0,1,5.42,5.3V34.67A5.36,5.36,0,0,1,34.9,40ZM20.47,16.7a3.18,3.18,0,0,0-3.24,3.11V34.67a3.18,3.18,0,0,0,3.24,3.11H34.9a3.18,3.18,0,0,0,3.24-3.11V19.81A3.18,3.18,0,0,0,34.9,16.7Z"/><path class="cls-3" d="M27.68,33.85a6.61,6.61,0,1,1,6.61-6.61A6.61,6.61,0,0,1,27.68,33.85Zm0-11a4.42,4.42,0,1,0,4.42,4.42A4.43,4.43,0,0,0,27.68,22.82Z"/><circle class="cls-4" cx="34.77" cy="20.3" r="1.55"/></g></g></svg>