<svg xmlns="http://www.w3.org/2000/svg" viewBox="0 0 55.14 55.14"><defs><style>.cls-1{fill:#666;}</style></defs><title>mail</title><g id="Capa_2" data-name="Capa 2"><g id="Layer_1" data-name="Layer 1"><path class="cls-1" d="M40.09,17.27H17a3.24,3.24,0,0,0-3.24,3.24V36.41A3.24,3.24,0,0,0,17,39.65H40.09a3.24,3.24,0,0,0,3.24-3.24V20.52A3.24,3.24,0,0,0,40.09,17.27Zm-1.3,2.59L29,30.08a.65.65,0,0,1-.92,0l0,0L18.32,19.87Zm-22.41,14V21.59l5.38,5.63Zm.73,3.22,6.47-7.94,2.65,2.76a3.24,3.24,0,0,0,4.59.1l.1-.1,2.45-2.56L40,37.05ZM40.73,34l-5.58-6.53,5.59-5.84Z"/><path class="cls-1" d="M27.57,55.14A27.57,27.57,0,1,1,55.14,27.57,27.6,27.6,0,0,1,27.57,55.14Zm0-49.37a21.8,21.8,0,1,0,21.8,21.8A21.82,21.82,0,0,0,27.57,5.77Z"/></g></g></svg>