<?xml version="1.0" encoding="utf-8"?>
<!-- Generator: Adobe Illustrator 22.1.0, SVG Export Plug-In . SVG Version: 6.00 Build 0)  -->
<svg version="1.1" id="Layer_1" xmlns="http://www.w3.org/2000/svg" xmlns:xlink="http://www.w3.org/1999/xlink" x="0px" y="0px"
	 viewBox="0 0 55.1 55.1" style="enable-background:new 0 0 55.1 55.1;" xml:space="preserve">
<style type="text/css">
	.st0{fill:#1E574B;}
</style>
<title>whatsapp_f</title>
<g id="Capa_2">
	<g id="Layer_1_1_">
		<path class="st0" d="M27.6,55.1C12.3,55.1,0,42.8,0,27.6S12.3,0,27.6,0s27.6,12.3,27.6,27.6C55.1,42.8,42.8,55.1,27.6,55.1z
			 M27.6,5.8c-12,0-21.8,9.8-21.8,21.8s9.8,21.8,21.8,21.8s21.8-9.8,21.8-21.8C49.4,15.5,39.6,5.8,27.6,5.8z"/>
		<path class="st0" d="M29.4,11.6c-7.8,0-14.1,6.3-14.1,14.1c0,2.6,0.7,5.1,2,7.3l-2.3,7.4l7.8-2.1c6.9,3.7,15.4,1,19.1-5.8
			c3.7-6.9,1-15.4-5.8-19.1C33.9,12.3,31.7,11.7,29.4,11.6L29.4,11.6z M29.4,37.6c-2.2,0-4.4-0.6-6.3-1.8h-0.2L18.4,37l1.4-4.4
			c-3.8-5.3-2.5-12.7,2.8-16.5S35.3,13.7,39,19s2.5,12.7-2.8,16.5C34.2,36.9,31.8,37.6,29.4,37.6L29.4,37.6z"/>
		<path class="st0" d="M27,22.3c0.2,0.3,0.2,0.8,0,1.1c-0.4,0.5-0.8,0.9-0.8,0.9s-0.4,0.3,0,0.8c1.1,1.7,2.7,3,4.5,3.9
			c0.4,0.2,1,0,1.1-0.4c0,0,0,0,0,0l0.8-1.1c0,0,0.2-0.3,0.8,0s2.7,1.2,2.7,1.2s0.4,0.1,0.3,0.7s-0.3,2.6-3.2,2.8
			c-2.2-0.1-4.2-0.9-5.9-2.2c-1.7-1.3-3-2.9-4.1-4.7L23.2,25c-0.4-0.8-0.6-1.7-0.6-2.5c0-0.1,0-0.2,0-0.3c0-1.2,0.8-2.3,1.9-2.7
			c0,0,1.1-0.2,1.4,0L27,22.3z"/>
	</g>
</g>
</svg>
